#define max_width 11
#define max_height 11
static unsigned char max_bits[] = {
   0x20, 0x00, 0x50, 0x00, 0x88, 0x00, 0x04, 0x01, 0x22, 0x02, 0x71, 0x04,
   0xf8, 0x00, 0xdc, 0x01, 0x8e, 0x03, 0x07, 0x07, 0x03, 0x06 };
